HIERARCHY
ROOT Hips
{
	OFFSET 0.00000 0.00000 0.00000
	CHANNELS 6 Xposition Yposition Zposition Yrotation Zrotation Xrotation 
	JOINT Lumbar
	{
		OFFSET 0 0 0
		CHANNELS 3 Zrotation Xrotation Yrotation
		JOINT Neck
		{
			OFFSET 0.00 0.2701 0.00
			CHANNELS 3 Zrotation Xrotation Yrotation
			End Site
			{
				OFFSET 0.00 0.1379 0.00
			}
		}
		JOINT RightShoulder
		{
			OFFSET 0.0119 0.2289 0.1181
			CHANNELS 3 Zrotation Xrotation Yrotation
			JOINT RightElbow
			{
				OFFSET 0.00 -0.1475 0.00
				CHANNELS 2 Zrotation Yrotation
				JOINT RightWrist
				{
					OFFSET 0.00 -0.1605 0.00
					CHANNELS 2 Zrotation Xrotation
					End Site
					{
						OFFSET 0.0040 -0.1068 0.0006
					}
				}
			}
		}
		JOINT LeftShoulder
		{
			OFFSET 0.0119 0.2289 -0.1181
			CHANNELS 3 Zrotation Xrotation Yrotation
			JOINT LeftElbow
			{
				OFFSET 0.00 -0.1475 0.00
				CHANNELS 2 Zrotation Yrotation
				JOINT LeftWrist
				{
					OFFSET 0.00 -0.1605 0.00
					CHANNELS 2 Zrotation Xrotation
					End Site
					{
						OFFSET 0.0040 -0.1068 -0.0006
					}
				}
			}
		}
	}
	JOINT RightHip
	{
		OFFSET 0.0316 -0.0424 0.0458
		CHANNELS 3 Zrotation Xrotation Yrotation
		JOINT RightKnee
		{
			OFFSET 0.00 -0.2438 0.00
			CHANNELS 1 Zrotation
			JOINT RightAnkle
			{
				OFFSET 0.00 -0.2449 0.00
				CHANNELS 3 Zrotation Xrotation Yrotation
				End Site
				{
					OFFSET 0.1237 -0.0542 0.0051
				}
			}
		}
	}
	JOINT LeftHip
	{
		OFFSET 0.0316 -0.0424 -0.0458
		CHANNELS 3 Zrotation Xrotation Yrotation
		JOINT LeftKnee
		{
			OFFSET 0.00 -0.2438 0.00
			CHANNELS 1 Zrotation
			JOINT LeftAnkle
			{
				OFFSET 0.00 -0.2449 0.00
				CHANNELS 3 Zrotation Xrotation Yrotation
				End Site
				{
					OFFSET 0.1237 -0.0542 -0.0051
				}
			}
		}
	}
}
MOTION
Frames: 28
Frame Time: 0.02
0.00035 0.0001 -0.00018 16.23308 -34.28465 -4.11287 58.28145 1.08026 1.71219 -11.38888 -0.65226 -0.1448 22.96497 -96.24791 -90.01127 5.32854 83.84907 -15.27199 2.18455 6.70255 107.51514 -64.18315 5.32734 -94.65152 8.24809 2.93474 50.81465 -2.56516 -4.62882 -19.42803 -8.36125 -4.93528 -3.42674 52.7593 4.5753 4.9586 -24.35955 -9.77851 5.74724 3.86784
0.00068 0.00012 -0.00024 16.31563 -34.30235 -4.10386 58.33846 1.05085 1.66651 -11.59814 -0.62116 -0.14317 26.16999 -95.96264 -90.01127 5.32854 82.83382 -14.60794 1.61551 7.86692 107.07649 -64.18062 5.32761 -93.54568 7.97862 2.50183 50.77859 -2.59417 -4.74547 -19.41432 -8.35166 -4.94222 -3.42319 52.75371 4.59288 5.07785 -24.36272 -9.74731 5.72801 3.85863
0.00101 0.00014 -0.00029 16.39812 -34.32002 -4.09489 58.39528 1.02151 1.62086 -11.80682 -0.59016 -0.14155 29.36773 -95.67821 -90.01128 5.32854 81.82162 -13.94555 1.04774 9.02822 106.63868 -64.1781 5.32787 -92.44582 7.71033 2.07044 50.74259 -2.62313 -4.86197 -19.40065 -8.34209 -4.94915 -3.41965 52.74815 4.61039 5.19671 -24.36588 -9.71618 5.70883 3.84945
0.00134 0.00016 -0.00034 16.48045 -34.33768 -4.08592 58.45212 0.99219 1.5753 -12.01545 -0.55916 -0.13993 32.56338 -95.39381 -90.01128 5.32854 80.80948 -13.28347 0.48035 10.18911 106.20129 -64.17558 5.32813 -91.34391 7.44176 1.6389 50.70664 -2.65205 -4.9783 -19.38698 -8.33253 -4.95608 -3.41611 52.74258 4.62791 5.31561 -24.36904 -9.68507 5.68966 3.84027
0.00166 0.00017 -0.0004 16.56275 -34.35536 -4.0769 58.50915 0.96281 1.52974 -12.22465 -0.52807 -0.1383 35.76509 -95.1086 -90.01129 5.32854 79.79435 -12.61991 -0.08806 11.35281 105.76326 -64.17304 5.32839 -90.23477 7.17187 1.20576 50.67064 -2.68101 -5.09468 -19.37328 -8.32296 -4.96302 -3.41256 52.73698 4.64549 5.43488 -24.3722 -9.65389 5.67045 3.83108
0.00199 0.00019 -0.00045 16.64563 -34.373 -4.06803 58.56553 0.93354 1.48392 -12.43221 -0.49727 -0.13668 38.95417 -94.82584 -90.01129 5.32854 78.78835 -11.96002 -0.65441 12.50897 105.32594 -64.17056 5.32865 -89.15429 6.90692 0.77807 50.63465 -2.70996 -5.21143 -19.35966 -8.3134 -4.96991 -3.40904 52.73153 4.66284 5.55284 -24.37535 -9.62288 5.65134 3.82192
0.00232 0.00021 -0.0005 16.72727 -34.39071 -4.05888 58.62315 0.90408 1.43867 -12.64284 -0.46591 -0.13505 42.16564 -94.53845 -90.0113 5.32855 77.76512 -11.29341 -1.22441 13.67915 104.88769 -64.16798 5.32891 -88.01819 6.63244 0.33995 50.59868 -2.73889 -5.32734 -19.34589 -8.30382 -4.97691 -3.40546 52.72577 4.68066 5.6734 -24.37853 -9.59155 5.63203 3.8127
0.00265 0.00023 -0.00056 16.81005 -34.40837 -4.04998 58.67962 0.87479 1.39291 -12.85063 -0.43507 -0.13343 45.35557 -94.25532 -90.0113 5.32855 76.7577 -10.63312 -1.79083 14.83617 104.45028 -64.16548 5.32917 -86.93183 6.3665 -0.08867 50.56271 -2.76784 -5.44397 -19.33226 -8.29427 -4.98381 -3.40193 52.72031 4.69801 5.7914 -24.38168 -9.56053 5.61292 3.80354
0.00298 0.00024 -0.00061 16.89427 -34.42591 -4.04142 58.73473 0.84573 1.34644 -13.05508 -0.40483 -0.13183 48.5245 -93.97733 -90.01131 5.32855 75.7695 -9.97973 -2.35408 15.97858 104.01367 -64.16309 5.32942 -85.91244 6.11195 -0.50535 50.52662 -2.79685 -5.56178 -19.31881 -8.2847 -4.99056 -3.39847 52.71513 4.71495 5.90698 -24.38479 -9.52981 5.59401 3.79444
0.00331 0.00026 -0.00067 16.97035 -34.44394 -4.03098 58.79782 0.8154 1.30377 -13.27916 -0.37105 -0.13012 51.83044 -93.66953 -90.01132 5.32855 74.67035 -9.28411 -2.9392 17.20952 103.57175 -64.1601 5.32973 -84.52629 5.79471 -0.98977 50.49089 -2.82563 -5.67371 -19.30432 -8.2751 -4.9981 -3.39464 52.70811 4.73472 6.0386 -24.38813 -9.49715 5.57381 3.78494
0.00362 0.00028 -0.00071 17.06347 -34.46106 -4.02447 58.84398 0.78775 1.25327 -13.46152 -0.34478 -0.12863 54.83643 -93.42483 -90.01131 5.32855 73.80562 -8.67931 -3.47575 18.25069 103.1416 -64.15837 5.3299 -83.90186 5.60794 -1.33189 50.45462 -2.85481 -5.79744 -19.29205 -8.26562 -5.00401 -3.39161 52.70513 4.7482 6.13501 -24.39097 -9.46873 5.55641 3.77634
0.00386 0.0003 -0.00072 17.20502 -34.47478 -4.02927 58.84391 0.76749 1.17966 -13.53082 -0.33896 -0.12784 57.10243 -93.35307 -90.01131 5.32856 73.5874 -8.31167 -3.89799 18.79014 102.73898 -64.16019 5.32971 -85.4865 5.79731 -1.27467 50.41489 -2.88569 -5.95883 -19.28572 -8.25592 -5.00507 -3.39057 52.71185 4.74702 6.14563 -24.39252 -9.45056 5.54611 3.76969
0.00406 0.00031 -0.0007 17.3633 -34.48774 -4.03793 58.8268 0.74994 1.09857 -13.55797 -0.34071 -0.12725 59.05189 -93.34463 -90.01128 5.32858 73.60397 -8.03738 -4.26801 19.13493 102.3491 -64.16322 5.32938 -87.81294 6.11427 -1.07633 50.37495 -2.91684 -6.13108 -19.28164 -8.24643 -5.00455 -3.39039 52.72283 4.73913 6.11927 -24.39356 -9.43686 5.53872 3.76404
0.00427 0.00033 -0.0007 17.51292 -34.50169 -4.0445 58.81733 0.73111 1.02189 -13.60344 -0.33909 -0.12652 61.09196 -93.30747 -90.01125 5.3286 73.51094 -7.72837 -4.64949 19.55713 101.95646 -64.16567 5.32912 -89.7237 6.36111 -0.94824 50.33644 -2.9475 -6.2949 -19.27663 -8.23721 -5.00499 -3.38996 52.73283 4.73248 6.10226 -24.39479 -9.42207 5.53039 3.75831
0.00449 0.00035 -0.0007 17.66729 -34.51302 -4.05251 58.80823 0.71243 0.94065 -13.65229 -0.33719 -0.126 63.35612 -93.27055 -90.01134 5.32859 73.43053 -7.38739 -5.08247 20.02801 101.55088 -64.1684 5.32882 -91.97203 6.65975 -0.7936 50.29244 -2.97977 -6.47349 -19.27124 -8.22648 -5.00444 -3.38894 52.739 4.73305 6.11504 -24.39623 -9.40346 5.52047 3.75105
0.00469 0.00036 -0.00069 17.81539 -34.52947 -4.05843 58.79433 0.69414 0.86745 -13.68417 -0.33764 -0.1251 65.07858 -93.24771 -90.01108 5.32865 73.37959 -7.13464 -5.39607 20.34832 101.1755 -64.17065 5.32857 -93.68758 6.88036 -0.66135 50.25966 -3.00867 -6.6239 -19.26716 -8.21889 -5.00553 -3.38933 52.75389 4.7175 6.05905 -24.39709 -9.39369 5.51451 3.74715
0.00481 0.00037 -0.00065 17.9448 -34.5616 -4.05757 58.77119 0.67563 0.81563 -13.67939 -0.34297 -0.1231 65.38691 -93.25156 -90.00977 5.32894 73.35008 -7.10572 -5.39054 20.32653 100.87809 -64.17129 5.32853 -93.79879 6.85654 -0.62101 50.25915 -3.02893 -6.69378 -19.26629 -8.22038 -5.01185 -3.39365 52.79398 4.6546 5.80473 -24.39647 -9.40859 5.5193 3.75296
0.0049 0.00037 -0.00061 18.06677 -34.59862 -4.05448 58.74379 0.65753 0.77267 -13.65907 -0.35035 -0.12072 65.16335 -93.26673 -90.00757 5.32932 73.34192 -7.16114 -5.26703 20.1548 100.61082 -64.17028 5.32856 -93.34227 6.74905 -0.60866 50.26967 -3.04566 -6.73497 -19.26663 -8.22494 -5.01981 -3.39933 52.84223 4.57652 5.48563 -24.39529 -9.43198 5.52788 3.762
0.00501 0.00037 -0.00057 18.19037 -34.63257 -4.05243 58.71846 0.63962 0.72733 -13.64592 -0.35664 -0.11852 65.17677 -93.27457 -90.00657 5.32962 73.32634 -7.17672 -5.19914 20.03514 100.33159 -64.17147 5.32855 -93.10948 6.67872 -0.58685 50.27437 -3.06353 -6.78924 -19.2663 -8.22782 -5.02681 -3.40424 52.88537 4.50834 5.2078 -24.39435 -9.45056 5.53439 3.76913
0.00511 0.00037 -0.00053 18.32204 -34.67022 -4.05041 58.69208 0.62018 0.67462 -13.63071 -0.36388 -0.11627 65.18668 -93.29394 -90.00455 5.33001 73.31182 -7.20456 -5.12133 19.97788 100.04651 -64.17125 5.32856 -93.03365 6.61768 -0.54761 50.28263 -3.08336 -6.84353 -19.26653 -8.23192 -5.03467 -3.40981 52.93477 4.42733 4.87924 -24.39342 -9.47327 5.54249 3.77813
0.00522 0.00037 -0.00049 18.4348 -34.70112 -4.04774 58.66695 0.60404 0.63964 -13.61681 -0.36951 -0.11407 65.09735 -93.29105 -90.00149 5.33032 73.29395 -7.22238 -5.0364 19.75589 99.77932 -64.16772 5.32857 -92.50353 6.51428 -0.55158 50.28591 -3.0983 -6.89109 -19.26591 -8.23418 -5.04112 -3.41431 52.9728 4.36942 4.64083 -24.39236 -9.48936 5.54813 3.78401
0.00537 0.00038 -0.00042 18.4981 -34.71407 -4.04402 58.64776 0.5965 0.64989 -13.60931 -0.37027 -0.11193 64.74921 -93.22564 -90.00765 5.32996 73.28925 -7.21935 -4.96262 19.11606 99.56275 -64.17815 5.32849 -90.70753 6.32505 -0.68325 50.2743 -3.10026 -6.9249 -19.26227 -8.23088 -5.04365 -3.41568 52.97934 4.38013 4.6728 -24.39091 -9.48481 5.54599 3.78028
0.00554 0.00039 -0.00033 18.54245 -34.71969 -4.03967 58.62974 0.59231 0.67794 -13.60406 -0.36926 -0.10994 64.35472 -93.13753 -90.00133 5.32986 73.27529 -7.19757 -4.88417 18.30632 99.35984 -64.1623 5.32866 -88.49867 6.09261 -0.85588 50.25699 -3.09753 -6.95345 -19.25784 -8.22555 -5.04466 -3.41589 52.97381 4.41442 4.7969 -24.38939 -9.47332 5.54125 3.77332
0.00569 0.0004 -0.00025 18.59467 -34.72745 -4.03549 58.6104 0.58689 0.69895 -13.59872 -0.36895 -0.10792 64.043 -93.05746 -90.00464 5.32954 73.24473 -7.1661 -4.80875 17.58812 99.14705 -64.16745 5.32849 -86.57312 5.87333 -0.9998 50.24128 -3.09713 -6.98557 -19.25401 -8.22096 -5.04615 -3.4165 52.97254 4.43724 4.87534 -24.38796 -9.46516 5.53773 3.76797
0.00585 0.00041 -0.00017 18.64939 -34.74047 -4.03176 58.59446 0.58034 0.71603 -13.58898 -0.36919 -0.10553 63.40225 -92.98445 -90.02911 5.32848 73.29801 -7.21517 -4.73143 16.84605 98.95756 -64.21134 5.32835 -84.22259 5.68194 -1.18498 50.23021 -3.09559 -7.01106 -19.24913 -8.21731 -5.04857 -3.4177 52.97665 4.46279 4.96745 -24.38619 -9.45654 5.5342 3.76213
0.00601 0.00042 -9e-05 18.69497 -34.74065 -4.02693 58.57147 0.57683 0.74518 -13.58903 -0.36782 -0.10419 63.50517 -92.89494 -89.95904 5.33052 73.1803 -7.09009 -4.65086 16.0627 98.71394 -64.07169 5.32938 -82.66861 5.41901 -1.29645 50.20792 -3.09558 -7.05033 -19.24633 -8.2111 -5.04866 -3.41736 52.96666 4.48837 5.05385 -24.3852 -9.44711 5.53001 3.7565
0.00617 0.00041 1e-05 18.71603 -34.70774 -4.01962 58.53149 0.58184 0.80512 -13.6165 -0.36258 -0.10358 65.12152 -92.73611 -90.06843 5.3272 72.52486 -6.50156 -4.62903 15.68393 98.38652 -64.29021 5.3273 -83.39184 5.00654 -1.16834 50.15632 -3.09891 -7.12104 -19.24849 -8.19894 -5.04302 -3.41329 52.92003 4.50895 5.10201 -24.38582 -9.43718 5.5246 3.75234
0.00633 0.00039 0.00012 18.72934 -34.66201 -4.01113 58.48386 0.58958 0.87625 -13.65366 -0.35573 -0.10437 67.57855 -92.56894 -90.023 5.32888 71.69999 -5.74019 -4.59274 15.19914 97.98905 -64.18698 5.33015 -84.93289 4.51759 -0.96836 50.09353 -3.10429 -7.20698 -19.25298 -8.18415 -5.03507 -3.40769 52.85972 4.5287 5.1416 -24.38736 -9.4266 5.51859 3.74847
